{
    "asset" : {
        "generator" : "Khronos glTF Blender I/O v1.5.17",
        "version" : "2.0"
    },
    "scene" : 0,
    "scenes" : [
        {
            "name" : "Scene",
            "nodes" : [
                3,
                4,
                5
            ]
        }
    ],
    "nodes" : [
        {
            "mesh" : 0,
            "name" : "Fudd_Hat.001"
        },
        {
            "children" : [
                0
            ],
            "name" : "Fudd_Hat"
        },
        {
            "children" : [
                1
            ],
            "name" : "Fudd"
        },
        {
            "children" : [
                2
            ],
            "name" : "RootNode"
        },
        {
            "name" : "Light",
            "rotation" : [
                0.16907575726509094,
                0.7558803558349609,
                -0.27217137813568115,
                0.570947527885437
            ],
            "translation" : [
                4.076245307922363,
                5.903861999511719,
                -1.0054539442062378
            ]
        },
        {
            "name" : "Camera",
            "rotation" : [
                0.483536034822464,
                0.33687159419059753,
                -0.20870360732078552,
                0.7804827094078064
            ],
            "translation" : [
                7.358891487121582,
                4.958309173583984,
                6.925790786743164
            ]
        }
    ],
    "materials" : [
        {
            "emissiveFactor" : [
                1,
                1,
                1
            ],
            "emissiveTexture" : {
                "index" : 0
            },
            "name" : "Fudd_mat",
            "normalTexture" : {
                "index" : 1
            },
            "occlusionTexture" : {
                "index" : 2
            },
            "pbrMetallicRoughness" : {
                "baseColorTexture" : {
                    "index" : 3
                },
                "metallicRoughnessTexture" : {
                    "index" : 2
                }
            }
        }
    ],
    "meshes" : [
        {
            "name" : "Fudd_Hat",
            "primitives" : [
                {
                    "attributes" : {
                        "POSITION" : 0,
                        "NORMAL" : 1,
                        "TEXCOORD_0" : 2
                    },
                    "indices" : 3,
                    "material" : 0
                }
            ]
        }
    ],
    "textures" : [
        {
            "sampler" : 0,
            "source" : 0
        },
        {
            "sampler" : 0,
            "source" : 1
        },
        {
            "sampler" : 0,
            "source" : 2
        },
        {
            "sampler" : 0,
            "source" : 3
        }
    ],
    "images" : [
        {
            "bufferView" : 4,
            "mimeType" : "image/png",
            "name" : "Image_3"
        },
        {
            "bufferView" : 5,
            "mimeType" : "image/png",
            "name" : "Image_2"
        },
        {
            "bufferView" : 6,
            "mimeType" : "image/png",
            "name" : "Image_1"
        },
        {
            "bufferView" : 7,
            "mimeType" : "image/png",
            "name" : "Image_0"
        }
    ],
    "accessors" : [
        {
            "bufferView" : 0,
            "componentType" : 5126,
            "count" : 8756,
            "max" : [
                13.181479454040527,
                30.736351013183594,
                15.521001815795898
            ],
            "min" : [
                -13.229081153869629,
                1.7015905380249023,
                -19.39303970336914
            ],
            "type" : "VEC3"
        },
        {
            "bufferView" : 1,
            "componentType" : 5126,
            "count" : 8756,
            "type" : "VEC3"
        },
        {
            "bufferView" : 2,
            "componentType" : 5126,
            "count" : 8756,
            "type" : "VEC2"
        },
        {
            "bufferView" : 3,
            "componentType" : 5123,
            "count" : 49728,
            "type" : "SCALAR"
        }
    ],
    "bufferViews" : [
        {
            "buffer" : 0,
            "byteLength" : 105072,
            "byteOffset" : 0
        },
        {
            "buffer" : 0,
            "byteLength" : 105072,
            "byteOffset" : 105072
        },
        {
            "buffer" : 0,
            "byteLength" : 70048,
            "byteOffset" : 210144
        },
        {
            "buffer" : 0,
            "byteLength" : 99456,
            "byteOffset" : 280192
        },
        {
            "buffer" : 0,
            "byteLength" : 340774,
            "byteOffset" : 379648
        },
        {
            "buffer" : 0,
            "byteLength" : 568914,
            "byteOffset" : 720424
        },
        {
            "buffer" : 0,
            "byteLength" : 5355,
            "byteOffset" : 1289340
        },
        {
            "buffer" : 0,
            "byteLength" : 3150,
            "byteOffset" : 1294696
        }
    ],
    "samplers" : [
        {
            "magFilter" : 9729,
            "minFilter" : 9987
        }
    ],
    "buffers" : [
        {
            "byteLength" : 1297848,
            "uri" : "data:application/octet-stream;base64,"
        }
    ]
}
