{
    "asset" : {
        "generator" : "Khronos glTF Blender I/O v1.5.17",
        "version" : "2.0"
    },
    "scene" : 0,
    "scenes" : [
        {
            "name" : "Scene",
            "nodes" : [
                3,
                4,
                5
            ]
        }
    ],
    "nodes" : [
        {
            "mesh" : 0,
            "name" : "WW_Tiara.001"
        },
        {
            "children" : [
                0
            ],
            "name" : "WW_Tiara"
        },
        {
            "children" : [
                1
            ],
            "name" : "wonderWomansTiara"
        },
        {
            "children" : [
                2
            ],
            "name" : "RootNode"
        },
        {
            "name" : "Light",
            "rotation" : [
                0.16907575726509094,
                0.7558803558349609,
                -0.27217137813568115,
                0.570947527885437
            ],
            "translation" : [
                4.076245307922363,
                5.903861999511719,
                -1.0054539442062378
            ]
        },
        {
            "name" : "Camera",
            "rotation" : [
                0.483536034822464,
                0.33687159419059753,
                -0.20870360732078552,
                0.7804827094078064
            ],
            "translation" : [
                7.358891487121582,
                4.958309173583984,
                6.925790786743164
            ]
        }
    ],
    "materials" : [
        {
            "emissiveFactor" : [
                1,
                1,
                1
            ],
            "emissiveTexture" : {
                "index" : 0
            },
            "name" : "wonderWomanTiara_m",
            "normalTexture" : {
                "index" : 1
            },
            "occlusionTexture" : {
                "index" : 2
            },
            "pbrMetallicRoughness" : {
                "baseColorTexture" : {
                    "index" : 3
                },
                "metallicRoughnessTexture" : {
                    "index" : 2
                }
            }
        }
    ],
    "meshes" : [
        {
            "name" : "WW_Tiara",
            "primitives" : [
                {
                    "attributes" : {
                        "POSITION" : 0,
                        "NORMAL" : 1,
                        "TEXCOORD_0" : 2
                    },
                    "indices" : 3,
                    "material" : 0
                }
            ]
        }
    ],
    "textures" : [
        {
            "sampler" : 0,
            "source" : 0
        },
        {
            "sampler" : 0,
            "source" : 1
        },
        {
            "sampler" : 0,
            "source" : 2
        },
        {
            "sampler" : 0,
            "source" : 3
        }
    ],
    "images" : [
        {
            "bufferView" : 4,
            "mimeType" : "image/png",
            "name" : "Image_3"
        },
        {
            "bufferView" : 5,
            "mimeType" : "image/png",
            "name" : "Image_2"
        },
        {
            "bufferView" : 6,
            "mimeType" : "image/png",
            "name" : "Image_1"
        },
        {
            "bufferView" : 7,
            "mimeType" : "image/png",
            "name" : "Image_0"
        }
    ],
    "accessors" : [
        {
            "bufferView" : 0,
            "componentType" : 5126,
            "count" : 8224,
            "max" : [
                8.446335792541504,
                7.499124526977539,
                8.242673873901367
            ],
            "min" : [
                -8.446331024169922,
                1.2986490726470947,
                -7.0186004638671875
            ],
            "type" : "VEC3"
        },
        {
            "bufferView" : 1,
            "componentType" : 5126,
            "count" : 8224,
            "type" : "VEC3"
        },
        {
            "bufferView" : 2,
            "componentType" : 5126,
            "count" : 8224,
            "type" : "VEC2"
        },
        {
            "bufferView" : 3,
            "componentType" : 5123,
            "count" : 44190,
            "type" : "SCALAR"
        }
    ],
    "bufferViews" : [
        {
            "buffer" : 0,
            "byteLength" : 98688,
            "byteOffset" : 0
        },
        {
            "buffer" : 0,
            "byteLength" : 98688,
            "byteOffset" : 98688
        },
        {
            "buffer" : 0,
            "byteLength" : 65792,
            "byteOffset" : 197376
        },
        {
            "buffer" : 0,
            "byteLength" : 88380,
            "byteOffset" : 263168
        },
        {
            "buffer" : 0,
            "byteLength" : 3150,
            "byteOffset" : 351548
        },
        {
            "buffer" : 0,
            "byteLength" : 958996,
            "byteOffset" : 354700
        },
        {
            "buffer" : 0,
            "byteLength" : 776746,
            "byteOffset" : 1313696
        },
        {
            "buffer" : 0,
            "byteLength" : 384808,
            "byteOffset" : 2090444
        }
    ],
    "samplers" : [
        {
            "magFilter" : 9729,
            "minFilter" : 9987
        }
    ],
    "buffers" : [
        {
            "byteLength" : 2475252,
            "uri" : "data:application/octet-stream;base64,"
        }
    ]
}
